# Exported from Wings 3D 1.5.4
mtllib body.mtl
o BODY
#168 vertices, 158 faces
v -2.50000000 0.75000000 -1.00000000
v -2.50000000 0.75000000 1.00000000
v 2.50000000 0.75000000 -1.00000000
v 2.50000000 0.75000000 1.00000000
v 2.50000000 0.60000000 1.00000000
v 2.50000000 0.60000000 -1.00000000
v -2.50000000 0.60000000 1.00000000
v -2.50000000 0.60000000 -1.00000000
v -2.50000000 0.50000000 -1.00000000
v 2.50000000 0.50000000 1.00000000
v -2.50000000 0.50000000 1.00000000
v 2.50000000 0.50000000 -1.00000000
v 2.50000000 0.40000000 -1.00000000
v -2.50000000 0.40000000 1.00000000
v 2.50000000 0.40000000 1.00000000
v -2.50000000 0.40000000 -1.00000000
v -2.50000000 0.30000000 -1.00000000
v 2.50000000 0.30000000 1.00000000
v -2.50000000 0.30000000 1.00000000
v 2.50000000 0.30000000 -1.00000000
v 2.50000000 0.30000000 0.90000000
v 2.50000000 0.30000000 -0.90000000
v -2.50000000 0.30000000 -0.90000000
v -2.50000000 0.30000000 0.90000000
v -2.50000000 0.40000000 0.90000000
v -2.50000000 0.40000000 -0.90000000
v 2.50000000 0.40000000 -0.90000000
v 2.50000000 0.40000000 0.90000000
v 2.50000000 0.50000000 -0.90000000
v 2.50000000 0.50000000 0.90000000
v -2.50000000 0.50000000 0.90000000
v -2.50000000 0.50000000 -0.90000000
v 2.50000000 0.60000000 -0.90000000
v 2.50000000 0.60000000 0.90000000
v -2.50000000 0.60000000 0.90000000
v -2.50000000 0.60000000 -0.90000000
v 2.50000000 0.75000000 -0.90000000
v 2.50000000 0.75000000 0.90000000
v -2.50000000 0.75000000 0.90000000
v -2.50000000 0.75000000 -0.90000000
v -2.50000000 0.75000000 -0.80000000
v -2.50000000 0.75000000 0.80000000
v 2.50000000 0.75000000 -0.80000000
v 2.50000000 0.75000000 0.80000000
v -2.50000000 0.60000000 -0.80000000
v -2.50000000 0.60000000 0.80000000
v 2.50000000 0.60000000 0.80000000
v 2.50000000 0.60000000 -0.80000000
v -2.50000000 0.50000000 -0.80000000
v -2.50000000 0.50000000 0.80000000
v 2.50000000 0.50000000 0.80000000
v 2.50000000 0.50000000 -0.80000000
v 2.50000000 0.40000000 0.80000000
v 2.50000000 0.40000000 -0.80000000
v -2.50000000 0.40000000 -0.80000000
v -2.50000000 0.40000000 0.80000000
v -2.50000000 0.30000000 -0.80000000
v -2.50000000 0.30000000 0.80000000
v 2.50000000 0.30000000 0.80000000
v 2.50000000 0.30000000 -0.80000000
v 2.50000000 -0.30000000 0.70000000
v 2.50000000 -0.30000000 -0.70000000
v -2.50000000 -0.30000000 -0.70000000
v -2.50000000 -0.30000000 0.70000000
v 2.50000000 0.30000000 -0.70000000
v 2.50000000 0.30000000 0.70000000
v -2.50000000 0.30000000 0.70000000
v -2.50000000 0.30000000 -0.70000000
v -2.50000000 0.40000000 0.70000000
v -2.50000000 0.40000000 -0.70000000
v 2.50000000 0.40000000 -0.70000000
v 2.50000000 0.40000000 0.70000000
v -2.50000000 -0.40000000 -0.70000000
v -2.50000000 -0.40000000 0.70000000
v -2.50000000 -0.60000000 -0.70000000
v -2.50000000 -0.60000000 0.70000000
v 2.50000000 0.60000000 -0.70000000
v 2.50000000 0.60000000 0.70000000
v -2.50000000 0.60000000 0.70000000
v -2.50000000 0.60000000 -0.70000000
v 2.50000000 -0.60000000 0.70000000
v 2.50000000 -0.60000000 -0.70000000
v 2.50000000 0.75000000 -0.70000000
v 2.50000000 0.75000000 0.70000000
v -2.50000000 -0.75000000 -0.70000000
v -2.50000000 -0.75000000 0.70000000
v -2.50000000 0.75000000 0.70000000
v -2.50000000 0.75000000 -0.70000000
v 2.50000000 -0.40000000 0.70000000
v 2.50000000 -0.40000000 -0.70000000
v 2.50000000 -0.50000000 0.70000000
v 2.50000000 -0.50000000 -0.70000000
v -2.50000000 -0.50000000 -0.70000000
v -2.50000000 -0.50000000 0.70000000
v 2.50000000 0.50000000 -0.70000000
v 2.50000000 0.50000000 0.70000000
v -2.50000000 0.50000000 0.70000000
v -2.50000000 0.50000000 -0.70000000
v 2.50000000 -0.75000000 0.70000000
v 2.50000000 -0.75000000 -0.70000000
v 2.50000000 -0.75000000 -0.50000000
v 2.50000000 -0.75000000 0.50000000
v -2.50000000 0.50000000 -0.50000000
v -2.50000000 0.50000000 0.50000000
v 2.50000000 -0.50000000 -0.50000000
v 2.50000000 -0.50000000 0.50000000
v 2.50000000 -0.40000000 -0.50000000
v 2.50000000 -0.40000000 0.50000000
v -2.50000000 0.75000000 -0.50000000
v -2.50000000 0.75000000 0.50000000
v -2.50000000 -0.60000000 0.50000000
v -2.50000000 -0.60000000 -0.50000000
v -2.50000000 -0.40000000 0.50000000
v -2.50000000 -0.40000000 -0.50000000
v 2.50000000 0.40000000 0.50000000
v 2.50000000 0.40000000 -0.50000000
v -2.50000000 0.30000000 -0.50000000
v -2.50000000 0.30000000 0.50000000
v 2.50000000 0.30000000 0.50000000
v 2.50000000 0.30000000 -0.50000000
v -2.50000000 -0.30000000 0.50000000
v -2.50000000 -0.30000000 -0.50000000
v 2.50000000 0.50000000 0.50000000
v 2.50000000 0.50000000 -0.50000000
v -2.50000000 -0.50000000 0.50000000
v -2.50000000 -0.50000000 -0.50000000
v -2.50000000 -0.75000000 0.50000000
v -2.50000000 -0.75000000 -0.50000000
v 2.50000000 0.75000000 0.50000000
v 2.50000000 0.75000000 -0.50000000
v 2.50000000 -0.60000000 -0.50000000
v 2.50000000 -0.60000000 0.50000000
v -2.50000000 0.60000000 -0.50000000
v -2.50000000 0.60000000 0.50000000
v 2.50000000 0.60000000 0.50000000
v 2.50000000 0.60000000 -0.50000000
v -2.50000000 0.40000000 -0.50000000
v -2.50000000 0.40000000 0.50000000
v 2.50000000 -0.30000000 -0.50000000
v 2.50000000 -0.30000000 0.50000000
v 2.50000000 0.0000000e+0 -0.50000000
v -2.50000000 0.0000000e+0 -0.50000000
v 2.50000000 0.0000000e+0 0.50000000
v -2.50000000 0.0000000e+0 0.50000000
v 2.50000000 0.0000000e+0 0.70000000
v -2.50000000 0.0000000e+0 -0.70000000
v -2.50000000 0.0000000e+0 0.70000000
v 2.50000000 0.0000000e+0 -0.70000000
v 2.50000000 0.0000000e+0 0.80000000
v -2.50000000 0.0000000e+0 0.80000000
v 2.50000000 0.0000000e+0 -0.80000000
v -2.50000000 0.0000000e+0 -0.80000000
v -2.50000000 0.0000000e+0 -0.90000000
v 2.50000000 0.0000000e+0 -0.90000000
v 2.50000000 0.0000000e+0 0.90000000
v -2.50000000 0.0000000e+0 0.90000000
v 2.50000000 0.0000000e+0 -1.00000000
v 2.50000000 0.0000000e+0 1.00000000
v -2.50000000 0.0000000e+0 -1.00000000
v -2.50000000 0.0000000e+0 1.00000000
v -2.50000000 -0.15000000 -0.70000000
v 2.50000000 -0.15000000 0.70000000
v 2.50000000 -0.15000000 0.50000000
v -2.50000000 -0.15000000 -0.50000000
v 2.50000000 -0.15000000 -0.50000000
v -2.50000000 -0.15000000 0.50000000
v -2.50000000 -0.15000000 0.70000000
v 2.50000000 -0.15000000 -0.70000000
vn -0.57735027 0.57735027 -0.57735027
vn -0.57735027 0.57735027 0.57735027
vn 0.57735027 0.57735027 -0.57735027
vn 0.57735027 0.57735027 0.57735027
vn 0.70710678 0.0000000e+0 0.70710678
vn 0.70710678 0.0000000e+0 -0.70710678
vn -0.70710678 0.0000000e+0 0.70710678
vn -0.70710678 0.0000000e+0 -0.70710678
vn -0.70710678 0.0000000e+0 -0.70710678
vn 0.70710678 0.0000000e+0 0.70710678
vn -0.70710678 0.0000000e+0 0.70710678
vn 0.70710678 0.0000000e+0 -0.70710678
vn 0.70710678 0.0000000e+0 -0.70710678
vn -0.70710678 0.0000000e+0 0.70710678
vn 0.70710678 0.0000000e+0 0.70710678
vn -0.70710678 0.0000000e+0 -0.70710678
vn -0.70710678 0.0000000e+0 -0.70710678
vn 0.70710678 0.0000000e+0 0.70710678
vn -0.70710678 0.0000000e+0 0.70710678
vn 0.70710678 0.0000000e+0 -0.70710678
vn 1.00000000 0.0000000e+0 0.0000000e+0
vn 1.00000000 0.0000000e+0 0.0000000e+0
vn -1.00000000 0.0000000e+0 0.0000000e+0
vn -1.00000000 0.0000000e+0 0.0000000e+0
vn -1.00000000 0.0000000e+0 0.0000000e+0
vn -1.00000000 0.0000000e+0 0.0000000e+0
vn 1.00000000 0.0000000e+0 0.0000000e+0
vn 1.00000000 0.0000000e+0 0.0000000e+0
vn 1.00000000 0.0000000e+0 0.0000000e+0
vn 1.00000000 0.0000000e+0 0.0000000e+0
vn -1.00000000 0.0000000e+0 0.0000000e+0
vn -1.00000000 0.0000000e+0 0.0000000e+0
vn 1.00000000 0.0000000e+0 0.0000000e+0
vn 1.00000000 0.0000000e+0 0.0000000e+0
vn -1.00000000 0.0000000e+0 0.0000000e+0
vn -1.00000000 0.0000000e+0 0.0000000e+0
vn 0.70710678 0.70710678 0.0000000e+0
vn 0.70710678 0.70710678 0.0000000e+0
vn -0.70710678 0.70710678 0.0000000e+0
vn -0.70710678 0.70710678 0.0000000e+0
vn -0.70710678 0.70710678 0.0000000e+0
vn -0.70710678 0.70710678 0.0000000e+0
vn 0.70710678 0.70710678 0.0000000e+0
vn 0.70710678 0.70710678 0.0000000e+0
vn -1.00000000 0.0000000e+0 0.0000000e+0
vn -1.00000000 0.0000000e+0 0.0000000e+0
vn 1.00000000 0.0000000e+0 0.0000000e+0
vn 1.00000000 0.0000000e+0 0.0000000e+0
vn -1.00000000 0.0000000e+0 0.0000000e+0
vn -1.00000000 0.0000000e+0 0.0000000e+0
vn 1.00000000 0.0000000e+0 0.0000000e+0
vn 1.00000000 0.0000000e+0 0.0000000e+0
vn 1.00000000 0.0000000e+0 0.0000000e+0
vn 1.00000000 0.0000000e+0 0.0000000e+0
vn -1.00000000 0.0000000e+0 0.0000000e+0
vn -1.00000000 0.0000000e+0 0.0000000e+0
vn -1.00000000 0.0000000e+0 0.0000000e+0
vn -1.00000000 0.0000000e+0 0.0000000e+0
vn 1.00000000 0.0000000e+0 0.0000000e+0
vn 1.00000000 0.0000000e+0 0.0000000e+0
vn 0.70710678 0.0000000e+0 0.70710678
vn 0.70710678 0.0000000e+0 -0.70710678
vn -0.70710678 0.0000000e+0 -0.70710678
vn -0.70710678 0.0000000e+0 0.70710678
vn 1.00000000 0.0000000e+0 0.0000000e+0
vn 1.00000000 0.0000000e+0 0.0000000e+0
vn -1.00000000 0.0000000e+0 0.0000000e+0
vn -1.00000000 0.0000000e+0 0.0000000e+0
vn -1.00000000 0.0000000e+0 0.0000000e+0
vn -1.00000000 0.0000000e+0 0.0000000e+0
vn 1.00000000 0.0000000e+0 0.0000000e+0
vn 1.00000000 0.0000000e+0 0.0000000e+0
vn -0.70710678 0.0000000e+0 -0.70710678
vn -0.70710678 0.0000000e+0 0.70710678
vn -0.89442719 0.0000000e+0 -0.44721360
vn -0.89442719 0.0000000e+0 0.44721360
vn 1.00000000 0.0000000e+0 0.0000000e+0
vn 1.00000000 0.0000000e+0 0.0000000e+0
vn -1.00000000 0.0000000e+0 0.0000000e+0
vn -1.00000000 0.0000000e+0 0.0000000e+0
vn 0.89442719 0.0000000e+0 0.44721360
vn 0.89442719 0.0000000e+0 -0.44721360
vn 0.70710678 0.70710678 0.0000000e+0
vn 0.70710678 0.70710678 0.0000000e+0
vn -0.57735027 -0.57735027 -0.57735027
vn -0.57735027 -0.57735027 0.57735027
vn -0.70710678 0.70710678 0.0000000e+0
vn -0.70710678 0.70710678 0.0000000e+0
vn 0.70710678 0.0000000e+0 0.70710678
vn 0.70710678 0.0000000e+0 -0.70710678
vn 0.89442719 0.0000000e+0 0.44721360
vn 0.89442719 0.0000000e+0 -0.44721360
vn -0.89442719 0.0000000e+0 -0.44721360
vn -0.89442719 0.0000000e+0 0.44721360
vn 1.00000000 0.0000000e+0 0.0000000e+0
vn 1.00000000 0.0000000e+0 0.0000000e+0
vn -1.00000000 0.0000000e+0 0.0000000e+0
vn -1.00000000 0.0000000e+0 0.0000000e+0
vn 0.57735027 -0.57735027 0.57735027
vn 0.57735027 -0.57735027 -0.57735027
vn 0.70710678 -0.70710678 0.0000000e+0
vn 0.70710678 -0.70710678 0.0000000e+0
vn -1.00000000 0.0000000e+0 0.0000000e+0
vn -1.00000000 0.0000000e+0 0.0000000e+0
vn 1.00000000 0.0000000e+0 0.0000000e+0
vn 1.00000000 0.0000000e+0 0.0000000e+0
vn 1.00000000 0.0000000e+0 0.0000000e+0
vn 1.00000000 0.0000000e+0 0.0000000e+0
vn -0.70710678 0.70710678 0.0000000e+0
vn -0.70710678 0.70710678 0.0000000e+0
vn -1.00000000 0.0000000e+0 0.0000000e+0
vn -1.00000000 0.0000000e+0 0.0000000e+0
vn -1.00000000 0.0000000e+0 0.0000000e+0
vn -1.00000000 0.0000000e+0 0.0000000e+0
vn 1.00000000 0.0000000e+0 0.0000000e+0
vn 1.00000000 0.0000000e+0 0.0000000e+0
vn -1.00000000 0.0000000e+0 0.0000000e+0
vn -1.00000000 0.0000000e+0 0.0000000e+0
vn 1.00000000 0.0000000e+0 0.0000000e+0
vn 1.00000000 0.0000000e+0 0.0000000e+0
vn -1.00000000 0.0000000e+0 0.0000000e+0
vn -1.00000000 0.0000000e+0 0.0000000e+0
vn 1.00000000 0.0000000e+0 0.0000000e+0
vn 1.00000000 0.0000000e+0 0.0000000e+0
vn -1.00000000 0.0000000e+0 0.0000000e+0
vn -1.00000000 0.0000000e+0 0.0000000e+0
vn -0.70710678 -0.70710678 0.0000000e+0
vn -0.70710678 -0.70710678 0.0000000e+0
vn 0.70710678 0.70710678 0.0000000e+0
vn 0.70710678 0.70710678 0.0000000e+0
vn 1.00000000 0.0000000e+0 0.0000000e+0
vn 1.00000000 0.0000000e+0 0.0000000e+0
vn -1.00000000 0.0000000e+0 0.0000000e+0
vn -1.00000000 0.0000000e+0 0.0000000e+0
vn 1.00000000 0.0000000e+0 0.0000000e+0
vn 1.00000000 0.0000000e+0 0.0000000e+0
vn -1.00000000 0.0000000e+0 0.0000000e+0
vn -1.00000000 0.0000000e+0 0.0000000e+0
vn 1.00000000 0.0000000e+0 0.0000000e+0
vn 1.00000000 0.0000000e+0 0.0000000e+0
vn 1.00000000 0.0000000e+0 0.0000000e+0
vn -1.00000000 0.0000000e+0 0.0000000e+0
vn 1.00000000 0.0000000e+0 0.0000000e+0
vn -1.00000000 0.0000000e+0 0.0000000e+0
vn 0.90453403 -0.30151134 0.30151134
vn -0.90453403 -0.30151134 -0.30151134
vn -0.90453403 -0.30151134 0.30151134
vn 0.90453403 -0.30151134 -0.30151134
vn 0.89442719 -0.44721360 0.0000000e+0
vn -0.89442719 -0.44721360 0.0000000e+0
vn 0.89442719 -0.44721360 0.0000000e+0
vn -0.89442719 -0.44721360 0.0000000e+0
vn -0.89442719 -0.44721360 0.0000000e+0
vn 0.89442719 -0.44721360 0.0000000e+0
vn 0.89442719 -0.44721360 0.0000000e+0
vn -0.89442719 -0.44721360 0.0000000e+0
vn 0.57735027 -0.57735027 -0.57735027
vn 0.57735027 -0.57735027 0.57735027
vn -0.57735027 -0.57735027 -0.57735027
vn -0.57735027 -0.57735027 0.57735027
vn -0.70710678 0.0000000e+0 -0.70710678
vn 0.70710678 0.0000000e+0 0.70710678
vn 1.00000000 0.0000000e+0 0.0000000e+0
vn -1.00000000 0.0000000e+0 0.0000000e+0
vn 1.00000000 0.0000000e+0 0.0000000e+0
vn -1.00000000 0.0000000e+0 0.0000000e+0
vn -0.70710678 0.0000000e+0 0.70710678
vn 0.70710678 0.0000000e+0 -0.70710678
g BODY_default
usemtl default
s 1
f 1//1 8//8 36//36 40//40
f 2//2 7//7 5//5 4//4
f 2//2 39//39 35//35 7//7
f 3//3 6//6 8//8 1//1
f 4//4 38//38 39//39 2//2
f 5//5 34//34 38//38 4//4
f 6//6 12//12 9//9 8//8
f 7//7 11//11 10//10 5//5
f 9//9 32//32 36//36 8//8
f 10//10 30//30 34//34 5//5
f 11//11 14//14 15//15 10//10
f 12//12 13//13 16//16 9//9
f 13//13 20//20 17//17 16//16
f 14//14 19//19 18//18 15//15
f 15//15 28//28 30//30 10//10
f 16//16 26//26 32//32 9//9
f 17//17 23//23 26//26 16//16
f 17//17 159//159 153//153 23//23
f 18//18 21//21 28//28 15//15
f 18//18 158//158 155//155 21//21
f 19//19 160//160 158//158 18//18
f 20//20 157//157 159//159 17//17
f 21//21 59//59 53//53 28//28
f 22//22 27//27 54//54 60//60
f 22//22 154//154 157//157 20//20
f 23//23 57//57 55//55 26//26
f 24//24 25//25 56//56 58//58
f 24//24 156//156 160//160 19//19
f 25//25 24//24 19//19 14//14
f 25//25 31//31 50//50 56//56
f 26//26 55//55 49//49 32//32
f 27//27 22//22 20//20 13//13
f 27//27 29//29 52//52 54//54
f 28//28 53//53 51//51 30//30
f 29//29 27//27 13//13 12//12
f 29//29 33//33 48//48 52//52
f 30//30 51//51 47//47 34//34
f 31//31 25//25 14//14 11//11
f 31//31 35//35 46//46 50//50
f 32//32 49//49 45//45 36//36
f 33//33 29//29 12//12 6//6
f 33//33 37//37 43//43 48//48
f 34//34 47//47 44//44 38//38
f 35//35 31//31 11//11 7//7
f 35//35 39//39 42//42 46//46
f 37//37 33//33 6//6 3//3
f 37//37 40//40 41//41 43//43
f 38//38 44//44 42//42 39//39
f 40//40 36//36 45//45 41//41
f 40//40 37//37 3//3 1//1
f 41//41 45//45 80//80 88//88
f 44//44 84//84 87//87 42//42
f 46//46 42//42 87//87 79//79
f 47//47 78//78 84//84 44//44
f 49//49 98//98 80//80 45//45
f 50//50 46//46 79//79 97//97
f 51//51 96//96 78//78 47//47
f 52//52 48//48 77//77 95//95
f 53//53 72//72 96//96 51//51
f 55//55 70//70 98//98 49//49
f 57//57 68//68 70//70 55//55
f 58//58 150//150 156//156 24//24
f 59//59 66//66 72//72 53//53
f 60//60 151//151 154//154 22//22
f 61//61 89//89 108//108 140//140
f 62//62 63//63 161//161 168//168
f 62//62 139//139 107//107 90//90
f 63//63 62//62 90//90 73//73
f 63//63 73//73 114//114 122//122
f 64//64 61//61 162//162 167//167
f 64//64 121//121 113//113 74//74
f 65//65 71//71 116//116 120//120
f 65//65 148//148 151//151 60//60
f 66//66 119//119 115//115 72//72
f 67//67 147//147 150//150 58//58
f 68//68 117//117 137//137 70//70
f 69//69 67//67 58//58 56//56
f 69//69 97//97 104//104 138//138
f 70//70 137//137 103//103 98//98
f 71//71 65//65 60//60 54//54
f 72//72 115//115 123//123 96//96
f 73//73 90//90 92//92 82//82 100//100 85//85 75//75 93//93
f 74//74 89//89 61//61 64//64
f 74//74 113//113 125//125 94//94
f 76//76 86//86 99//99 81//81 91//91 89//89 74//74 94//94
f 76//76 111//111 127//127 86//86
f 77//77 83//83 130//130 136//136
f 78//78 135//135 129//129 84//84
f 79//79 87//87 110//110 134//134
f 81//81 99//99 102//102 132//132
f 83//83 77//77 48//48 43//43
f 83//83 88//88 109//109 130//130
f 84//84 129//129 110//110 87//87
f 85//85 100//100 101//101 128//128
f 86//86 127//127 102//102 99//99
f 88//88 80//80 133//133 109//109
f 88//88 83//83 43//43 41//41
f 89//89 91//91 106//106 108//108
f 90//90 107//107 105//105 92//92
f 92//92 105//105 131//131 82//82
f 93//93 75//75 112//112 126//126
f 94//94 125//125 111//111 76//76
f 95//95 71//71 54//54 52//52
f 96//96 123//123 135//135 78//78
f 97//97 69//69 56//56 50//50
f 98//98 103//103 133//133 80//80
f 100//100 82//82 131//131 101//101
f 101//101 131//131 132//132 102//102
f 103//103 137//137 138//138 104//104
f 104//104 134//134 133//133 103//103
f 105//105 107//107 108//108 106//106
f 106//106 132//132 131//131 105//105
f 107//107 139//139 140//140 108//108
f 109//109 133//133 134//134 110//110
f 115//115 119//119 120//120 116//116
f 117//117 142//142 144//144 118//118
f 118//118 138//138 137//137 117//117
f 118//118 144//144 147//147 67//67
f 119//119 143//143 141//141 120//120
f 120//120 141//141 148//148 65//65
f 121//121 166//166 164//164 122//122
f 122//122 114//114 113//113 121//121
f 122//122 164//164 161//161 63//63
f 123//123 115//115 116//116 124//124
f 124//124 116//116 71//71 95//95
f 124//124 136//136 135//135 123//123
f 125//125 113//113 114//114 126//126
f 126//126 112//112 111//111 125//125
f 126//126 114//114 73//73 93//93
f 127//127 111//111 112//112 128//128
f 128//128 101//101 102//102 127//127
f 128//128 112//112 75//75 85//85
f 129//129 135//135 136//136 130//130
f 130//130 109//109 110//110 129//129
f 132//132 106//106 91//91 81//81
f 134//134 104//104 97//97 79//79
f 136//136 124//124 95//95 77//77
f 138//138 118//118 67//67 69//69
f 139//139 165//165 163//163 140//140
f 140//140 163//163 162//162 61//61
f 141//141 165//165 168//168 148//148
f 142//142 146//146 161//161 164//164
f 143//143 145//145 162//162 163//163
f 144//144 166//166 167//167 147//147
f 145//145 143//143 119//119 66//66
f 145//145 147//147 167//167 162//162
f 146//146 142//142 117//117 68//68
f 146//146 148//148 168//168 161//161
f 149//149 145//145 66//66 59//59
f 152//152 146//146 68//68 57//57
f 153//153 152//152 57//57 23//23
f 155//155 149//149 59//59 21//21
f 157//157 154//154 151//151 148//148 146//146 152//152 153//153 159//159
f 160//160 156//156 150//150 147//147 145//145 149//149 155//155 158//158
f 163//163 165//165 141//141 143//143
f 164//164 166//166 144//144 142//142
f 167//167 166//166 121//121 64//64
f 168//168 165//165 139//139 62//62
