# Exported from Wings 3D 1.5.4
mtllib wheel.mtl
o Wheel
#32 vertices, 18 faces
v 0.30785470 -9.4595930e-3 -0.21927394
v 0.28804069 0.10907137 -0.21927394
v 0.22437509 0.21099720 -0.21927394
v 0.12655042 0.28080063 -0.21927394
v 9.4595930e-3 0.30785470 -0.21927394
v -0.10907137 0.28804069 -0.21927394
v -0.21099720 0.22437509 -0.21927394
v -0.28080063 0.12655042 -0.21927394
v -0.30785470 9.4595930e-3 -0.21927394
v -0.28804069 -0.10907137 -0.21927394
v -0.22437509 -0.21099720 -0.21927394
v -0.12655042 -0.28080063 -0.21927394
v -9.4595930e-3 -0.30785470 -0.21927394
v 0.10907137 -0.28804069 -0.21927394
v 0.21099720 -0.22437509 -0.21927394
v 0.28080063 -0.12655042 -0.21927394
v 0.30785470 -9.4595930e-3 0.21927394
v 0.28804069 0.10907137 0.21927394
v 0.22437509 0.21099720 0.21927394
v 0.12655042 0.28080063 0.21927394
v 9.4595930e-3 0.30785470 0.21927394
v -0.10907137 0.28804069 0.21927394
v -0.21099720 0.22437509 0.21927394
v -0.28080063 0.12655042 0.21927394
v -0.30785470 9.4595930e-3 0.21927394
v -0.28804069 -0.10907137 0.21927394
v -0.22437509 -0.21099720 0.21927394
v -0.12655042 -0.28080063 0.21927394
v -9.4595930e-3 -0.30785470 0.21927394
v 0.10907137 -0.28804069 0.21927394
v 0.21099720 -0.22437509 0.21927394
v 0.28080063 -0.12655042 0.21927394
vn 0.89048886 -2.7362461e-2 -0.45418155
vn 0.83317560 0.31549572 -0.45418155
vn 0.64901890 0.61032253 -0.45418155
vn 0.36605495 0.81223327 -0.45418155
vn 2.7362461e-2 0.89048886 -0.45418155
vn -0.31549572 0.83317560 -0.45418155
vn -0.61032253 0.64901890 -0.45418155
vn -0.81223327 0.36605495 -0.45418155
vn -0.89048886 2.7362461e-2 -0.45418155
vn -0.83317560 -0.31549572 -0.45418155
vn -0.64901890 -0.61032253 -0.45418155
vn -0.36605495 -0.81223327 -0.45418155
vn -2.7362461e-2 -0.89048886 -0.45418155
vn 0.31549572 -0.83317560 -0.45418155
vn 0.61032253 -0.64901890 -0.45418155
vn 0.81223327 -0.36605495 -0.45418155
vn 0.89048886 -2.7362461e-2 0.45418155
vn 0.83317560 0.31549572 0.45418155
vn 0.64901890 0.61032253 0.45418155
vn 0.36605495 0.81223327 0.45418155
vn 2.7362461e-2 0.89048886 0.45418155
vn -0.31549572 0.83317560 0.45418155
vn -0.61032253 0.64901890 0.45418155
vn -0.81223327 0.36605495 0.45418155
vn -0.89048886 2.7362461e-2 0.45418155
vn -0.83317560 -0.31549572 0.45418155
vn -0.64901890 -0.61032253 0.45418155
vn -0.36605495 -0.81223327 0.45418155
vn -2.7362461e-2 -0.89048886 0.45418155
vn 0.31549572 -0.83317560 0.45418155
vn 0.61032253 -0.64901890 0.45418155
vn 0.81223327 -0.36605495 0.45418155
g Wheel_default
usemtl default
s 1
f 1//1 16//16 15//15 14//14 13//13 12//12 11//11 10//10 9//9 8//8 7//7 6//6 5//5 4//4 3//3 2//2
f 1//1 17//17 32//32 16//16
f 2//2 18//18 17//17 1//1
f 3//3 19//19 18//18 2//2
f 4//4 20//20 19//19 3//3
f 5//5 21//21 20//20 4//4
f 6//6 22//22 21//21 5//5
f 7//7 23//23 22//22 6//6
f 8//8 24//24 23//23 7//7
f 9//9 25//25 24//24 8//8
f 10//10 26//26 25//25 9//9
f 11//11 27//27 26//26 10//10
f 12//12 28//28 27//27 11//11
f 13//13 29//29 28//28 12//12
f 14//14 30//30 29//29 13//13
f 15//15 31//31 30//30 14//14
f 16//16 32//32 31//31 15//15
f 18//18 19//19 20//20 21//21 22//22 23//23 24//24 25//25 26//26 27//27 28//28 29//29 30//30 31//31 32//32 17//17
